<svg width="3701" height="1227" viewBox="0 0 3701 1227" fill="none" xmlns="http://www.w3.org/2000/svg">
<rect width="3701" height="1227" fill="white"/>
<path d="M660.525 238.407C676.289 208.559 719.039 208.559 734.803 238.407L775.914 316.25C785.995 335.338 808.903 343.676 828.895 335.534L910.424 302.328C941.686 289.596 974.435 317.076 967.324 350.073L948.781 436.13C944.233 457.232 956.423 478.345 976.971 484.958L1060.77 511.927C1092.9 522.268 1100.33 564.369 1073.67 585.076L1004.15 639.08C987.1 652.322 982.866 676.33 994.357 694.604L1041.22 769.129C1059.18 797.705 1037.81 834.728 1004.08 833.455L916.107 830.137C894.536 829.323 875.861 844.994 872.916 866.378L860.908 953.588C856.304 987.027 816.132 1001.65 791.11 978.992L725.855 919.904C709.853 905.416 685.475 905.416 669.473 919.904L604.218 978.992C579.196 1001.65 539.024 987.027 534.42 953.588L522.412 866.378C519.467 844.994 500.792 829.323 479.221 830.137L391.252 833.455C357.521 834.728 336.145 797.705 354.113 769.129L400.971 694.604C412.461 676.33 408.228 652.322 391.181 639.08L321.659 585.076C295.002 564.369 302.426 522.268 334.557 511.927L418.357 484.958C438.905 478.345 451.094 457.232 446.547 436.13L428.004 350.073C420.893 317.076 453.642 289.596 484.904 302.328L566.433 335.534C586.425 343.676 609.333 335.338 619.414 316.25L660.525 238.407Z" fill="#EA3A23"/>
<path d="M797.472 250.022C822.885 227.806 862.796 243.126 866.816 276.641L877.3 364.047C879.871 385.479 898.27 401.473 919.851 401.036L1007.87 399.254C1041.61 398.57 1062.34 435.961 1043.88 464.218L995.724 537.914C983.917 555.985 987.73 580.063 1004.54 593.601L1073.11 648.81C1099.4 669.979 1091.25 711.944 1058.94 721.723L974.682 747.225C954.022 753.479 941.466 774.375 945.644 795.553L962.683 881.921C969.216 915.037 935.993 941.941 904.958 928.665L824.021 894.042C804.174 885.552 781.124 893.489 770.711 912.398L728.248 989.511C711.966 1019.08 669.222 1018.33 653.982 988.215L614.235 909.666C604.489 890.406 581.73 881.669 561.599 889.461L479.503 921.239C448.024 933.423 415.759 905.377 423.445 872.508L443.487 786.788C448.402 765.769 436.583 744.447 416.153 737.476L332.837 709.048C300.891 698.148 294.203 655.924 321.218 635.685L391.671 582.903C408.947 569.96 413.599 546.03 402.429 527.558L356.878 452.227C339.413 423.342 361.431 386.697 395.134 388.558L483.032 393.411C504.586 394.601 523.532 379.259 526.849 357.929L540.377 270.943C545.564 237.589 585.986 223.671 610.608 246.761L674.822 306.978C690.568 321.744 714.943 322.17 731.195 307.962L797.472 250.022Z" fill="#2BADEE" fill-opacity="0.5"/>
<circle cx="487.27" cy="557.093" r="116.956" fill="white"/>
<circle cx="871.191" cy="531.667" r="116.956" fill="white"/>
<circle cx="430.063" cy="545.651" r="34.3241" fill="black"/>
<circle cx="923.313" cy="497.343" r="34.3241" fill="black"/>
<path d="M822.883 682.312C822.883 698.756 819.645 715.039 813.352 730.232C807.059 745.424 797.835 759.228 786.208 770.856C774.58 782.484 760.776 791.707 745.583 798C730.391 804.293 714.108 807.532 697.664 807.532C681.22 807.532 664.937 804.293 649.744 798C634.552 791.707 620.748 782.484 609.12 770.856C597.493 759.228 588.269 745.424 581.976 730.232C575.683 715.039 572.444 698.756 572.444 682.312L629.702 682.312C629.702 691.237 631.46 700.075 634.875 708.32C638.291 716.566 643.297 724.058 649.607 730.369C655.918 736.68 663.41 741.686 671.656 745.101C679.902 748.516 688.739 750.274 697.664 750.274C706.589 750.274 715.426 748.516 723.672 745.101C731.917 741.686 739.41 736.68 745.72 730.369C752.031 724.058 757.037 716.566 760.453 708.32C763.868 700.075 765.626 691.237 765.626 682.312H822.883Z" fill="black"/>
<path d="M1685.16 695.25C1696.64 670.106 1732.36 670.106 1743.84 695.25V695.25C1749.56 707.757 1762.57 715.269 1776.25 713.962V713.962C1803.77 711.335 1821.63 742.271 1805.6 764.788V764.788C1797.62 775.988 1797.62 791.012 1805.6 802.212V802.212C1821.63 824.729 1803.77 855.665 1776.25 853.038V853.038C1762.57 851.731 1749.56 859.243 1743.84 871.75V871.75C1732.36 896.894 1696.64 896.894 1685.16 871.75V871.75C1679.44 859.243 1666.43 851.731 1652.75 853.038V853.038C1625.23 855.665 1607.37 824.729 1623.4 802.212V802.212C1631.38 791.012 1631.38 775.988 1623.4 764.788V764.788C1607.37 742.271 1625.23 711.335 1652.75 713.962V713.962C1666.43 715.269 1679.44 707.757 1685.16 695.25V695.25Z" fill="#EA3A23"/>
<path d="M2697.58 657.708C2710.48 633.24 2745.52 633.24 2758.42 657.708V657.708C2765.46 671.079 2780.42 678.279 2795.26 675.453V675.453C2822.44 670.28 2844.28 697.676 2833.19 723.015V723.015C2827.14 736.862 2830.83 753.042 2842.3 762.888V762.888C2863.28 780.906 2855.48 815.068 2828.76 822.197V822.197C2814.15 826.093 2803.81 839.068 2803.26 854.172V854.172C2802.26 881.813 2770.69 897.017 2748.45 880.567V880.567C2736.3 871.578 2719.7 871.578 2707.55 880.567V880.567C2685.31 897.017 2653.74 881.813 2652.74 854.172V854.172C2652.19 839.068 2641.85 826.093 2627.24 822.197V822.197C2600.52 815.068 2592.72 780.906 2613.7 762.888V762.888C2625.17 753.042 2628.86 736.862 2622.81 723.015V723.015C2611.72 697.676 2633.56 670.28 2660.74 675.453V675.453C2675.58 678.279 2690.54 671.079 2697.58 657.708V657.708Z" fill="black"/>
<path d="M3078.87 866.916C3058.12 899.232 3010.88 899.232 2990.13 866.916L2976.57 845.808C2969.43 834.689 2958.37 826.657 2945.59 823.3L2921.33 816.929C2884.18 807.174 2869.58 762.253 2893.9 732.527L2909.79 713.11C2918.15 702.882 2922.38 689.885 2921.62 676.692L2920.18 651.646C2917.98 613.302 2956.19 585.539 2991.98 599.482L3015.35 608.59C3027.67 613.388 3041.33 613.388 3053.65 608.59L3077.02 599.482C3112.81 585.539 3151.02 613.302 3148.82 651.646L3147.38 676.692C3146.62 689.885 3150.85 702.882 3159.21 713.11L3175.1 732.527C3199.42 762.253 3184.82 807.174 3147.67 816.929L3123.41 823.3C3110.63 826.657 3099.57 834.689 3092.43 845.808L3078.87 866.916Z" fill="#2BADEE"/>
<path d="M1545.44 819.589C1515.81 849.148 1478.24 869.518 1437.26 878.238C1396.29 886.957 1353.65 883.654 1314.52 868.728C1275.38 853.801 1241.41 827.888 1216.71 794.12C1192.01 760.351 1177.64 720.17 1175.33 678.43C1173.02 636.69 1182.87 595.176 1203.7 558.901C1224.52 522.625 1255.43 493.141 1292.68 474.008C1329.93 454.874 1371.94 446.911 1413.63 451.079C1455.33 455.247 1494.92 471.367 1527.62 497.495L1481.9 554.471C1460.22 537.151 1433.98 526.465 1406.34 523.702C1378.71 520.94 1350.86 526.219 1326.16 538.902C1301.47 551.584 1280.98 571.129 1267.18 595.175C1253.38 619.221 1246.84 646.74 1248.37 674.408C1249.91 702.077 1259.43 728.712 1275.8 751.096C1292.18 773.48 1314.69 790.657 1340.64 800.552C1366.58 810.446 1394.84 812.636 1422 806.856C1449.17 801.076 1474.07 787.573 1493.71 767.979L1545.44 819.589Z" fill="black"/>
<path d="M1962.5 777C1937.17 777 1912.88 766.886 1894.97 748.882C1877.06 730.879 1867 706.461 1867 681C1867 655.539 1877.06 631.121 1894.97 613.118C1912.88 595.114 1937.17 585 1962.5 585L1962.5 639.079C1951.44 639.079 1940.83 643.495 1933.01 651.357C1925.19 659.219 1920.8 669.882 1920.8 681C1920.8 692.118 1925.19 702.781 1933.01 710.643C1940.83 718.505 1951.44 722.921 1962.5 722.921L1962.5 777Z" fill="black"/>
<path d="M1962.5 701C1987.83 701 2012.12 711.062 2030.03 728.971C2047.94 746.881 2058 771.172 2058 796.5C2058 821.828 2047.94 846.119 2030.03 864.029C2012.12 881.938 1987.83 892 1962.5 892L1962.5 838.203C1973.56 838.203 1984.17 833.809 1991.99 825.989C1999.81 818.168 2004.2 807.56 2004.2 796.5C2004.2 785.44 1999.81 774.832 1991.99 767.011C1984.17 759.191 1973.56 754.797 1962.5 754.797L1962.5 701Z" fill="black"/>
<path d="M1624.31 640.094C1631.91 618.283 1647.15 599.963 1667.22 588.527C1687.28 577.092 1710.81 573.316 1733.45 577.899C1756.09 582.482 1776.3 595.113 1790.33 613.452C1804.37 631.792 1811.29 654.598 1809.8 677.646L1753.63 674.024C1754.24 664.56 1751.4 655.197 1745.64 647.667C1739.87 640.137 1731.57 634.951 1722.28 633.069C1712.99 631.188 1703.32 632.738 1695.09 637.433C1686.85 642.128 1680.59 649.65 1677.47 658.605L1624.31 640.094Z" fill="black"/>
<rect x="2148.83" y="455.492" width="75" height="420.804" transform="rotate(9 2148.83 455.492)" fill="black"/>
<rect x="2522" y="450" width="75" height="434" fill="black"/>
<rect x="3262" y="455" width="75" height="434" fill="black"/>
<rect x="3417" y="539" width="75" height="234" transform="rotate(90 3417 539)" fill="black"/>
<rect x="3417" y="817" width="75" height="155" transform="rotate(90 3417 817)" fill="black"/>
<rect x="2223" y="466.871" width="75" height="420.804" transform="rotate(-13 2223 466.871)" fill="black"/>
<rect x="2413" y="657" width="75" height="280" transform="rotate(90 2413 657)" fill="black"/>
</svg>
